<?xml version="1.0" encoding="UTF-8"?>
<svg width="240px" height="28px" viewBox="0 0 240 28" version="1.1" xmlns="http://www.w3.org/2000/svg" xmlns:xlink="http://www.w3.org/1999/xlink">
    <title>Voicemod_Horizontal_Lockup_Black_RGB</title>
    <defs>
        <filter id="filter-1">
            <feColorMatrix in="SourceGraphic" type="matrix" values="0 0 0 0 1.000000 0 0 0 0 1.000000 0 0 0 0 1.000000 0 0 0 1.000000 0"></feColorMatrix>
        </filter>
    </defs>
    <g id="Page-1" stroke="none" stroke-width="1" fill="none" fill-rule="evenodd">
        <g id="Voicemod_Horizontal_Lockup_Black_RGB" transform="translate(-134.000000, -25.000000)" filter="url(#filter-1)">
            <g transform="translate(134.000000, 25.000000)">
                <path d="M24.1565053,0.378378378 L24.1565053,13.3331089 C24.1569547,13.7122467 23.9321664,14.0552562 23.5848311,14.2054394 C23.2374958,14.3556225 22.8343004,14.2841448 22.559438,14.0236596 L8.11073218,0.378378378 L0,0.378378378 L29.0985952,27.8809398 C29.2256716,28.0007059 29.4115884,28.0333701 29.5717325,27.9640666 C29.7318766,27.8947632 29.8358092,27.7367361 29.8358092,27.5619054 L29.8358092,0.378378378 L24.1565053,0.378378378 Z" id="Shape" fill="#000000" fill-rule="nonzero"></path>
                <path d="M85.5668491,19.3634877 L59.1436952,0.459862665 C59.0701883,0.406803456 58.9819387,0.378378378 58.8914242,0.378378378 C58.6503571,0.378378378 58.4549335,0.574699465 58.4549335,0.816873592 L58.4549335,15.5123273 L58.4549335,15.5123273 C58.4555011,15.8680694 58.2579336,16.1942409 57.943167,16.3572218 C57.6284003,16.5202027 57.2493281,16.4926056 56.9612417,16.2857358 L34.8390679,0.459862665 C34.7060446,0.365990249 34.5321139,0.354158853 34.387708,0.429159529 C34.2433021,0.504160205 34.1523496,0.65356509 34.151681,0.816873592 L34.151681,22.3003687 L39.8171241,22.3003687 L39.8253728,12.866165 C39.8248052,12.5104229 40.0223727,12.1842513 40.3371393,12.0212705 C40.651906,11.8582896 41.0309782,11.8858867 41.3190646,12.0927564 L63.4419258,27.9186296 C63.5361421,27.9861351 63.6532164,28.0132235 63.7673348,27.9939221 C63.8814531,27.9746207 63.9832439,27.9105146 64.0502632,27.8157387 C64.1032596,27.7417242 64.1316456,27.6527919 64.1313749,27.5616187 L64.1313749,12.866165 C64.1308073,12.5104229 64.3283748,12.1842513 64.6431414,12.0212705 C64.9579081,11.8582896 65.3369803,11.8858867 65.6250667,12.0927564 L75.7887699,19.3634877 L85.5668491,19.3634877 Z" id="Shape" fill="#000000" fill-rule="nonzero"></path>
                <path d="M104.519156,0.378378378 L95.4782326,19.4864865 L94.7954187,19.4864865 L85.7544957,0.378378378 L89.5948939,0.378378378 L89.9909672,0.651520141 L94.5719399,10.7077241 C94.6714237,10.9332535 94.892865,11.0785217 95.1371695,11.0785217 C95.3814739,11.0785217 95.6029152,10.9332535 95.7023991,10.7077241 L100.283372,0.651520141 L100.673256,0.378378378 L104.519156,0.378378378 Z" id="Shape" fill="#000000" fill-rule="nonzero"></path>
                <path d="M115.027365,19.6756757 C109.34785,19.6756757 105.832682,15.5759097 105.832682,9.83679411 C105.832682,4.09767847 109.345784,0 115.027365,0 C120.708947,0 124.222048,4.09767847 124.222048,9.83679411 C124.222048,15.5759097 120.708947,19.6756757 115.027365,19.6756757 M115.027365,3.27869943 C111.514263,3.27869943 109.617877,6.01257253 109.617877,9.83679411 C109.617877,13.6610157 111.512197,16.3962804 115.027365,16.3962804 C118.542534,16.3962804 120.437542,13.6631031 120.437542,9.83609829 C120.437542,6.00909344 118.5446,3.27800361 115.027365,3.27800361" id="Shape" fill="#000000" fill-rule="nonzero"></path>
                <polygon id="Shape" fill="#000000" fill-rule="nonzero" points="132.398566 19.4864865 129.18284 19.4864865 128.913213 19.2140397 128.913213 0.650825124 129.18284 0.378378378 132.398566 0.378378378 132.666145 0.650825124 132.666145 19.2140397"></polygon>
                <path d="M150.825553,13.663799 L151.096149,13.3910379 L154.348131,13.3910379 L154.620797,13.663799 C154.077535,17.4908038 151.096149,19.6756757 146.759712,19.6756757 C140.796939,19.6756757 137.544957,15.5759097 137.544957,9.83679411 C137.544957,4.09767847 140.796939,0 146.759712,0 C151.096149,0 154.076845,2.18487186 154.620797,5.73911564 L154.348131,6.01187671 L151.096149,6.01187671 L150.825553,5.73911564 C150.284361,4.09698265 148.929081,3.27684391 146.759712,3.27869943 C142.966538,3.27869943 141.338131,6.01187671 141.338131,9.83679411 C141.338131,13.6617115 142.966538,16.3962804 146.759712,16.3962804 C148.928621,16.3962804 150.284361,15.5752139 150.825553,13.6631031" id="Shape" fill="#000000" fill-rule="nonzero"></path>
                <polygon id="Shape" fill="#000000" fill-rule="nonzero" points="171.988162 19.4864865 159.210162 19.4864865 158.936669 19.2140397 158.936669 0.650825124 159.210162 0.378378378 171.988162 0.378378378 172.259578 0.650825124 172.259578 3.38085272 171.988162 3.65399448 163.014828 3.65399448 162.743412 3.92574621 162.743412 7.74903587 163.014828 8.02148262 171.442561 8.02148262 171.713977 8.29392936 171.713977 11.023957 171.442561 11.2964037 163.014828 11.2964037 162.743412 11.5716305 162.743412 15.9391187 163.014828 16.2115654 171.988162 16.2115654 172.259578 16.4840121 172.259578 19.2140397"></polygon>
                <path d="M211.476339,19.6756757 C205.797676,19.6756757 202.283034,15.5759097 202.283034,9.83679411 C202.283034,4.09767847 205.795609,0 211.476339,0 C217.15707,0 220.6724,4.09767847 220.6724,9.83679411 C220.6724,15.5759097 217.155692,19.6756757 211.476339,19.6756757 M211.476339,3.27869943 C207.963764,3.27869943 206.067662,6.01257253 206.067662,9.83679411 C206.067662,13.6610157 207.962386,16.3962804 211.476339,16.3962804 C214.990293,16.3962804 216.885706,13.6631031 216.885706,9.83609829 C216.885706,6.00909344 214.993048,3.27800361 211.476339,3.27800361" id="Shape" fill="#000000" fill-rule="nonzero"></path>
                <path d="M230.824562,19.4864865 L224.887919,19.4864865 L224.612979,19.2140397 L224.612979,0.650825124 L224.887919,0.378378378 L230.824562,0.378378378 C237.572279,0.378378378 240,3.92296614 240,9.93138991 C240,15.9398137 237.572279,19.4864865 230.824562,19.4864865 M231.094004,3.65329946 L228.664908,3.65329946 L228.395467,3.92574621 L228.395467,15.9391187 L228.664908,16.2115654 L231.094004,16.2115654 C234.87443,16.2115654 236.223011,14.298878 236.223011,9.93138991 C236.223011,5.56390177 234.873742,3.65329946 231.094004,3.65329946" id="Shape" fill="#000000" fill-rule="nonzero"></path>
                <path d="M197.687785,19.4809261 L194.547204,19.4809261 L194.27746,19.2084695 L194.27746,8.5659789 L194.007717,8.5659789 L188.199293,19.4864865 L187.459564,19.4864865 L181.65114,8.5659789 L181.381397,8.5659789 L181.381397,19.2084695 L181.111654,19.4809261 L177.971072,19.4809261 L177.701329,19.2084695 L177.701329,0.650835034 L177.971072,0.378378378 L181.159822,0.378378378 L181.43507,0.650835034 L187.279276,11.5574418 C187.384449,11.7686139 187.598493,11.9018665 187.832525,11.9018665 C188.066558,11.9018665 188.280601,11.7686139 188.385774,11.5574418 L194.227916,0.650835034 L194.503164,0.378378378 L197.691914,0.378378378 L197.967162,0.650835034 L197.967162,19.2084695 L197.687785,19.4809261 Z" id="Shape" fill="#000000" fill-rule="nonzero"></path>
            </g>
        </g>
    </g>
</svg>